<svg xmlns="http://www.w3.org/2000/svg" xmlns:xlink="http://www.w3.org/1999/xlink" viewBox="0 0 256 256">
	<defs>
		<linearGradient id="b">
			<stop offset="0"     stop-color="white"/>
			<stop offset="0.095" stop-color="white"/>
			<stop offset="0.603" stop-color="#3674b9"/>
			<stop offset="0.792" stop-color="#204670"/>
			<stop offset="1"     stop-color="#204670"/>
		</linearGradient>
		<linearGradient id="a">
			<stop offset="0" stop-color="#254462"/>
			<stop offset="1" stop-color="#264766" stop-opacity="0"/>
		</linearGradient>
		<linearGradient x1="-663.593" y1="408.982" x2="-553.118" y2="526.195" id="c" xlink:href="#b" gradientUnits="userSpaceOnUse" gradientTransform="matrix(0.99884 0 0 0.9987 752.842 -359.15)"/>
		<linearGradient x1="-552.767" y1="526.998" x2="-667.436" y2="411.58"  id="d" xlink:href="#b" gradientUnits="userSpaceOnUse" gradientTransform="matrix(0.99884 0 0 0.9987 752.842 -359.15)"/>
	</defs>
	<g fill="none" stroke="#235a8e" stroke-width="9.2" color="black">
		<path d="M130.904 166.192c31.198 12.274 71.327-18.322 71.327-67.992 0-58.985-37.124-91.952-71.366-91.952-54.962 0-107.304 45.424-107.304 107.573 0 69.08 60 107.343 107.304 107.343-10.705-1.541-69.42-9.185-69.899-91.351-.322-55.572 41.17-77.775 69.821-68.008.642.238 31.605 12.452 31.605 52.352 0 39.73-31.488 52.035-31.488 52.035z" style="marker:none" overflow="visible" stroke-width="12.365352"/>
		<path d="M130.848 61.76C99.411 50.924 60.9 76.835 60.9 128.733c0 84.74 62.795 92.431 70.407 92.431 54.962 0 107.304-45.424 107.304-107.573 0-69.079-60-107.343-107.304-107.343 13.102-1.814 70.618 14.18 70.618 92.79 0 51.264-42.947 79.171-70.88 67.248-.641-.238-31.604-12.452-31.604-52.352 0-39.73 31.407-52.174 31.407-52.174z" style="marker:none" overflow="visible" stroke-width="12.365352"/>
	</g>
	<g color="black" fill-rule="evenodd">
		<path d="M143.7 148.793c23.211 9.132 53.068-13.632 53.068-50.587 0-43.886-27.62-68.413-53.098-68.413-40.892 0-79.835 33.796-79.835 80.035 0 51.396 44.64 79.865 79.835 79.865-7.964-1.146-51.649-6.834-52.005-67.966-.24-41.347 30.63-57.866 51.948-50.6.477.178 23.514 9.265 23.514 38.951 0 29.56-23.428 38.715-23.428 38.715z" style="marker:none" fill="url(#c)" overflow="visible" transform="translate(-62.236 -33.795) scale(1.34406)"/>
		<path d="M143.658 71.094c-23.39-8.062-52.043 11.216-52.043 49.83 0 63.047 46.72 68.77 52.384 68.77 40.893 0 79.836-33.797 79.836-80.036 0-51.396-44.64-79.865-79.836-79.865 9.748-1.35 52.541 10.55 52.541 69.036 0 38.142-31.953 58.905-52.735 50.034-.478-.177-23.514-9.265-23.514-38.95 0-29.56 23.367-38.819 23.367-38.819z" style="marker:none" fill="url(#d)" overflow="visible" transform="translate(-62.236 -33.795) scale(1.34406)"/>
	</g>
</svg>
